<?xml version="1.0" encoding="UTF-8" standalone="no"?>
<svg
   space="preserve"
   viewBox="0 0 501.321 189.395"
   enable-background="new 0 0 501.321 189.395"
   overflow="visible"
   version="1.1"
   id="svg181"
   sodipodi:docname="Violin_1.svg"
   inkscape:version="1.2.1 (9c6d41e410, 2022-07-14)"
   xmlns:inkscape="http://www.inkscape.org/namespaces/inkscape"
   xmlns:sodipodi="http://sodipodi.sourceforge.net/DTD/sodipodi-0.dtd"
   xmlns="http://www.w3.org/2000/svg"
   xmlns:svg="http://www.w3.org/2000/svg"
   xmlns:rdf="http://www.w3.org/1999/02/22-rdf-syntax-ns#"
   xmlns:cc="http://creativecommons.org/ns#"
   xmlns:dc="http://purl.org/dc/elements/1.1/">
  <defs
     id="defs185" />
  <sodipodi:namedview
     id="namedview183"
     pagecolor="#ffffff"
     bordercolor="#000000"
     borderopacity="0.25"
     inkscape:showpageshadow="2"
     inkscape:pageopacity="0.0"
     inkscape:pagecheckerboard="0"
     inkscape:deskcolor="#d1d1d1"
     showgrid="false"
     inkscape:zoom="3.4133786"
     inkscape:cx="230.70983"
     inkscape:cy="112.79147"
     inkscape:window-width="2560"
     inkscape:window-height="1369"
     inkscape:window-x="-8"
     inkscape:window-y="-8"
     inkscape:window-maximized="1"
     inkscape:current-layer="g176" />
  <g
     id="Layer_1">
    <g
       clip-rule="evenodd"
       fill-rule="evenodd"
       id="g176">
      <path
         stroke="#000"
         stroke-width=".036"
         stroke-miterlimit="10"
         d="m147.36 8.91l-5.868-3.168c-2.052 2.376-4.752 3.708-8.244 4.14-3.456 0.36-5.148-0.324-12.564-1.764-7.632-1.656-21.636-5.796-32.436-6.984-10.944-1.224-21.924-1.908-31.969 0.468-10.008 2.304-19.692 6.444-27.504 13.824-7.991 7.452-14.867 21.132-19.367 30.348-4.5 8.964-6.336 16.596-7.308 23.868-1.044 7.308-0.577 13.644 1.259 19.548-2.232 1.728-3.348 3.816-3.348 6.66-0.072 2.771 1.044 6.012 3.204 9.865-0.972 6.695 0.252 14.578 3.816 24.336 3.6 9.756 9.684 24.119 17.136 33.371 7.272 9.035 16.344 16.633 26.388 20.988 9.972 4.211 22.572 5.436 33.228 4.932 10.584-0.611 21.708-5.291 30.06-7.813 8.208-2.52 13.752-6.191 19.548-6.984 5.76-0.863 10.692-0.18 14.94 2.053l5.256-3.313c-1.944-1.908-2.952-4.139-3.024-6.84-0.216-2.844-0.072-6.119 2.52-9.395 2.592-3.35 6.696-7.236 12.888-10.01 6.156-2.844 17.064-5.146 23.688-6.336 6.48-1.223 11.088-1.115 14.94-0.504 3.672 0.434 5.76 0.865 7.632 3.816 1.836 2.953 3.096 7.668 3.636 14.148l6.552 3.348c2.232-2.053 4.86-3.492 7.884-4.463 2.88-1.045 4.932-1.656 10.188-1.262 5.22 0.504 13.463 3.168 21.276 3.816 7.775 0.396 17.496 0.721 24.984-0.971 7.416-1.908 13.32-4.572 19.223-9.504 5.725-5.041 11.449-11.484 15.084-19.729 3.529-8.172 5.725-17.785 6.445-28.98l115.74-8.424c3.959-0.612 8.1-1.188 12.563-1.584 4.43-0.504 9.145-0.828 14.148-1.116 0.217 0.9 1.008 1.476 2.52 1.584 1.441 0.108 3.457-0.252 6.193-0.936-0.576 2.556-0.145 4.176 1.295 5.255 1.441 0.938 5.438 1.477 7.129 0.793 1.584-0.756 2.34-2.412 2.412-5.112 2.412 0 4.104-0.468 5.076-1.26 0.936-0.936 1.043-1.98 0.467-3.672 2.377 1.188 4.068 0.972 5.076-0.792 1.008-1.8 1.801-7.812 0.973-9.684-0.936-1.944-3.061-2.484-6.516-1.764 0.035-1.944-0.396-3.132-1.441-3.96-1.08-0.828-2.664-1.044-4.752-0.792 0.252-2.484-0.18-4.104-1.295-5.256-1.225-1.188-3.852-1.656-5.4-1.404-1.619 0.216-3.313 1.62-3.959 2.844-0.686 1.08-0.793 2.592-0.182 4.14-1.979-0.576-3.563-0.684-4.895-0.18-1.369 0.396-2.484 1.404-3.205 2.88 0.469-0.504-2.34-0.828-8.424-0.972-6.191-0.18-15.371-0.18-28.115 0l-107.17 0.54c0.432-4.788-0.434-10.224-2.881-16.704-2.447-6.588-6.336-15.66-11.664-21.78-5.473-6.12-13.104-11.34-20.375-14.292-7.201-3.024-14.725-3.816-22.861-3.492-8.424 0.252-19.764 3.744-26.387 5.076-6.444 1.224-8.64 2.484-12.42 2.232-3.96-0.468-7.668-1.908-11.124-4.608l-6.192 3.96c1.836 3.636 2.232 6.768 1.044 9.684-1.26 2.808-3.276 5.724-8.136 7.344-4.968 1.548-13.572 2.232-20.808 1.908-7.344-0.468-16.308-1.908-22.572-4.608-6.372-2.88-12.42-7.56-14.796-12.096-2.37-4.636-2.15-9.676 0.76-15.292z"
         id="path134" />
      <path
         stroke="#000"
         stroke-width=".036"
         stroke-miterlimit="10"
         d="m322.07 71.55c0.252-3.24-0.324-7.164-1.584-11.916-1.369-4.896-2.27-10.692-6.193-16.56-4.031-6.012-10.836-14.148-17.496-18.432-6.803-4.176-15.623-6.084-22.572-6.84-7.092-0.828-12.996 0.648-19.223 1.908-6.409 1.152-12.924 4.14-18.145 4.932-5.22 0.576-9.504 0-12.708-0.612-3.276-0.648-5.4-1.512-6.516-2.88l-2.376 1.116c1.152 2.916 1.476 5.436 1.116 7.956-0.396 2.376-0.972 4.644-3.672 6.66-2.952 2.052-7.128 4.608-13.5 5.58-6.552 0.828-16.812 0.9-24.804-0.324-8.028-1.332-17.172-4.104-22.572-7.488-5.364-3.492-8.316-9.036-9.54-13.032-1.368-4.032-0.684-7.632 1.764-10.944l-1.908-1.44c-0.144 2.268-2.772 3.384-8.28 3.348-5.58-0.144-16.56-2.34-24.48-3.816-7.848-1.548-14.904-4.356-22.716-5.112-8.059-0.864-16.23-1.584-24.799 0.18-8.64 1.692-17.388 5.076-26.532 10.152 6.084 4.716 11.016 10.872 14.94 18.468 3.816 7.596 8.604 16.74 8.244 26.856-0.396 10.08-3.996 20.772-10.656 32.904 5.688-3.384 12.204-6.336 20.376-9.396 7.992-3.132 21.276-7.416 27.648-8.568 6.156-1.188 8.244-0.18 10.152 2.052 1.8 2.196 1.116 6.372 1.44 10.98 0.36 4.5 0.576 11.269 0.648 15.876-0.072 4.393 1.044 9.107-0.972 10.836-2.16 1.656-5.292 0.611-11.736-0.504-6.66-1.225-17.532-4.824-27.18-6.336-9.72-1.621-21.6-2.844-30.204-2.701-8.604 0.182-15.552 3.061-20.844 3.637-5.292 0.359-9 0.18-10.98-0.936-1.476 2.699-1.008 7.523 1.116 14.615 2.124 7.057 6.696 19.297 11.772 27.828 5.004 8.461 10.404 16.74 18.288 22.896 7.884 6.047 19.224 11.195 28.764 13.355 9.396 1.943 18.612 0.469 27.648-1.115 9-1.693 19.728-6.301 25.92-8.424 6.012-2.197 6.444-3.637 10.188-4.465 3.672-0.863 8.748-0.828 11.772-0.469 2.844 0.254 4.644 1.045 5.4 2.232l2.52-1.619c-2.052-1.26-3.06-3.168-3.024-5.869-0.108-2.879-0.072-6.516 3.024-10.332 2.952-3.887 7.524-8.783 15.264-11.916 7.848-3.168 23.148-5.902 31.176-6.695 7.884-0.9 12.24-1.477 16.128 1.764 3.78 3.277 5.904 8.928 6.516 17.496l2.52 2.053c2.412-3.061 5.724-4.824 10.332-5.58 4.572-0.721 10.332 0.504 16.848 1.295 6.373 0.721 14.58 2.594 21.312 2.846 6.553 0.143 12.096 0.287 18.432-1.908 6.373-2.377 13.861-6.012 19.549-11.736 5.58-5.939 10.691-15.66 13.535-22.752 2.771-7.02 3.492-13.285 2.701-19.08l-113.51 10.188c1.008-2.809 1.512-6.264 1.908-10.512 0.288-4.393 0.468-9.684 0-14.76-0.576-5.004-1.584-10.044-3.168-15.12 37.61 0.036 75.27 0.108 112.92 0.18z"
         fill="#fff"
         id="path136"
         style="fill:#936f4d;fill-opacity:1" />
      <path
         stroke="#000"
         stroke-width=".036"
         stroke-miterlimit="10"
         d="m126.63 139.73l3.204 2.484c2.232-1.477 3.96-1.836 5.58-1.08 1.512 0.646 3.744 3.744 3.636 5.398-0.252 1.621-2.52 4.213-4.572 4.465-2.088 0.145-5.904-1.367-7.704-3.564-1.944-2.34-4.644-6.695-3.384-10.008 1.26-3.564 5.652-7.775 11.088-10.115s14.724-2.773 21.204-3.385c6.408-0.576 12.492-0.035 16.884-0.324 4.212-0.432 6.804-1.152 8.604-2.16 1.764-1.008 2.556-2.375 2.232-3.959l-2.232-1.656c-2.196 0.359-3.708 0.18-4.536-0.684-0.936-0.973-1.656-3.529-0.756-4.465 0.936-1.043 3.744-1.98 5.796-1.152 1.908 0.793 4.932 3.457 5.472 6.193 0.432 2.734-0.324 7.271-2.808 9.863-2.628 2.375-7.344 4.031-12.348 4.969-5.112 0.756-11.664 0.143-17.712 0.504-6.192 0.287-13.752 0.646-18.396 2.051-4.67 1.43-7.62 3.59-9.24 6.61z"
         id="path140" />
      <path
         stroke="#000"
         stroke-width=".036"
         stroke-miterlimit="10"
         d="m124.79 44.262l3.204-2.484c2.232 1.404 3.96 1.764 5.58 1.08 1.512-0.756 3.744-3.852 3.636-5.4-0.252-1.728-2.52-4.284-4.572-4.464-2.088-0.252-5.904 1.26-7.704 3.564-1.944 2.232-4.644 6.588-3.384 10.008 1.26 3.456 5.652 7.704 11.088 10.116 5.436 2.232 14.724 2.664 21.204 3.384 6.408 0.468 12.492-0.072 16.884 0.324 4.212 0.36 6.804 1.08 8.604 2.16 1.764 0.972 2.556 2.304 2.232 3.996l-2.232 1.656c-2.196-0.468-3.708-0.252-4.536 0.648-0.936 0.864-1.656 3.456-0.756 4.464 0.936 0.972 3.744 1.872 5.796 1.152 1.908-0.9 4.932-3.564 5.472-6.192 0.432-2.808-0.324-7.344-2.808-9.864-2.628-2.484-7.344-4.14-12.348-4.968-5.112-0.828-11.664-0.252-17.712-0.504-6.192-0.396-13.752-0.756-18.396-2.052-4.67-1.476-7.62-3.636-9.24-6.624z"
         id="path142" />
      <path
         stroke="#000"
         stroke-width=".036"
         stroke-miterlimit="10"
         d="m98.657 80.73l59.724-4.68 281.48-1.98-0.217 2.232-281.27 1.476-59.724 4.428v-1.476z"
         id="path144" />
      <path
         stroke="#000"
         stroke-width=".036"
         stroke-miterlimit="10"
         d="m99.197 80.946l58.464-4.464 40.428-0.216 241.2-1.836-0.072 1.476-74.16 0.252-207.32 1.26-58.752 4.428 0.209-0.9z"
         fill="#fff"
         id="path146"
         style="fill:#ffffff;fill-opacity:0" />
      <path
         stroke="#000"
         stroke-width=".036"
         stroke-miterlimit="10"
         d="m98.226 110.79l59.976 1.08 281.74-22.211-0.145-1.692-281.74 22.177-59.76-0.504-0.074 1.15z"
         id="path148" />
      <path
         stroke="#000"
         stroke-width=".036"
         stroke-miterlimit="10"
         d="m98.549 110.47l58.896 1.043 40.32-3.168 241.78-18.97-0.145-1.044-75.238 6.156-206.71 16.092-58.68-0.576-0.221 0.48z"
         fill="#fff"
         id="path150"
         style="fill:#ffffff;fill-opacity:0" />
      <path
         stroke="#000"
         stroke-width=".036"
         stroke-miterlimit="10"
         d="m99.197 99.486l59.976 1.08 279.68-15.192-0.072-1.656-279.76 15.12-59.76-0.504-0.063 1.148z"
         id="path152" />
      <path
         stroke="#000"
         stroke-width=".036"
         stroke-miterlimit="10"
         d="m99.557 99.125l58.896 1.08 279.97-15.119-0.145-0.936-279.86 15.089-58.68-0.576-0.183 0.467z"
         fill="#fff"
         id="path154"
         style="fill:#ffffff;fill-opacity:0.04913295" />
      <path
         stroke="#000"
         stroke-width=".036"
         stroke-miterlimit="10"
         d="m99.666 90.414l59.76-0.684 279.5-9.144 0.035-1.584-279.68 9.036-59.652 1.26 0.038 1.116z"
         id="path156" />
      <path
         stroke="#000"
         stroke-width=".036"
         stroke-miterlimit="10"
         d="m99.989 90.162l58.68-0.792 279.83-9.18v-0.864l-279.83 9.108-58.644 1.08-0.041 0.648z"
         fill="#fff"
         id="path158"
         style="fill:#ffffff;fill-opacity:0" />
      <path
         stroke="#000"
         stroke-width=".036"
         stroke-miterlimit="10"
         d="m102.87 79.362c-0.576 0.036-1.296 0.036-2.16 0.144-0.936 0.108-2.016 0.18-3.24 0.36-0.468-0.396-0.972-0.54-1.368-0.432-0.468 0.072-0.9 0.468-1.152 0.9-0.288 0.36-0.864 0.756-0.612 1.332 0.108 0.468 0.576 1.008 1.404 1.62-0.468-0.036-1.008-0.36-1.332-0.684-0.468-0.504-1.044-1.044-1.044-1.62-0.108-0.648 0.612-1.368 1.044-1.764 0.432-0.504 0.9-0.576 1.548-0.612 0.504-0.072 1.224 0.288 1.872 0.684 1.655 0 3.35 0.036 5.04 0.072z"
         fill="#fff"
         id="path160" />
      <path
         stroke="#000"
         stroke-width=".036"
         stroke-miterlimit="10"
         d="m103.01 87.714c-0.576 0-1.296 0.108-2.16 0.18-0.936 0.108-2.016 0.18-3.24 0.36-0.504-0.432-0.9-0.54-1.332-0.468-0.432 0.108-0.972 0.36-1.188 0.9-0.288 0.36-0.864 0.756-0.612 1.332 0.108 0.468 0.576 1.008 1.404 1.62-0.468-0.072-1.008-0.288-1.332-0.648-0.468-0.396-1.08-1.116-1.008-1.62-0.072-0.612 0.54-1.44 1.008-1.8 0.396-0.432 0.972-0.576 1.584-0.576 0.54-0.036 1.152 0.18 1.836 0.648 1.659 0 3.35 0.036 5.04 0.072z"
         fill="#fff"
         id="path162" />
      <path
         stroke="#000"
         stroke-width=".036"
         stroke-miterlimit="10"
         d="m102.36 97.146c-0.504-0.072-1.26-0.037-2.124-0.037-0.936 0-1.98 0.037-3.276 0.109-0.468-0.434-0.9-0.613-1.296-0.541-0.504 0.037-0.972 0.396-1.26 0.793-0.324 0.287-0.936 0.756-0.72 1.26 0.072 0.504 0.504 1.043 1.296 1.764-0.504-0.18-0.936-0.396-1.296-0.793-0.432-0.539-1.008-1.15-0.9-1.691 0-0.684 0.72-1.295 1.188-1.691 0.396-0.324 0.972-0.612 1.584-0.469 0.54 0.107 1.188 0.252 1.8 0.828 1.658 0.148 3.31 0.293 5 0.472z"
         fill="#fff"
         id="path164" />
      <path
         stroke="#000"
         stroke-width=".036"
         stroke-miterlimit="10"
         d="m101.61 108.88c-0.504-0.182-1.26-0.145-2.124-0.289-0.936-0.145-1.98-0.252-3.276-0.324-0.432-0.539-0.792-0.648-1.224-0.719-0.468-0.037-1.008 0.215-1.332 0.611-0.36 0.252-0.972 0.648-0.864 1.188 0.072 0.469 0.288 1.152 1.044 1.908-0.468-0.18-0.9-0.539-1.152-0.936-0.36-0.576-0.864-1.225-0.684-1.801 0.108-0.648 0.792-1.26 1.368-1.547 0.432-0.252 1.08-0.469 1.656-0.252 0.468 0.18 1.152 0.395 1.656 1.043 1.619 0.36 3.276 0.73 4.932 1.12z"
         fill="#fff"
         id="path166" />
      <path
         stroke="#000"
         stroke-width=".036"
         stroke-miterlimit="10"
         d="m432.41 71.91l-0.109-12.348c-0.719-0.432-0.898-0.9-0.936-1.26 0.072-0.36 0.289-0.756 1.045-1.044 0.215-0.936-0.072-1.548-0.469-1.98-0.576-0.504-1.584-0.108-2.447-0.612-1.008-0.576-2.305-1.548-2.773-2.772-0.576-1.368-0.863-3.276 0.109-5.148 1.008-2.016 3.744-5.04 5.832-6.156 1.979-1.188 3.779-1.152 5.795-0.468 1.836 0.72 4.393 2.556 5.58 4.536 1.08 1.764 1.764 4.716 1.08 6.516-0.863 1.764-4.68 3.132-5.615 4.104-0.9 0.828-0.9 1.296 0.143 1.26 0.252 0.18 0.361 0.54 0.324 0.936-0.107 0.36-0.324 0.864-0.791 1.512l0.107 12.096c-2.24 0.252-4.54 0.54-6.85 0.828z"
         id="path168" />
      <path
         stroke="#000"
         stroke-width=".036"
         stroke-miterlimit="10"
         d="m451.49 71.334v-14.22c0.611-0.648 0.863-1.224 0.611-1.728-0.289-0.576-1.08-1.08-2.232-1.512 1.045-1.476 1.691-3.168 2.088-5.364 0.289-2.16-0.504-6.156 0-7.56 0.432-1.62 1.656-1.476 2.701-1.512 0.936-0.18 2.412-0.072 2.916 1.152 0.215 1.26-0.865 3.816-0.613 6.156 0.289 2.196 1.152 4.572 2.592 7.128-0.646 0.324-1.043 0.756-1.188 1.152s-0.107 0.864 0.252 1.404v14.652l-6.299 0.576-0.83-0.324z"
         id="path170" />
      <path
         stroke="#000"
         stroke-width=".036"
         stroke-miterlimit="10"
         d="m442.31 90.162v14.221c0.648 0.611 0.793 1.188 0.576 1.727-0.324 0.541-1.008 1.045-2.195 1.512 1.045 1.441 1.691 3.133 2.088 5.365 0.287 2.051-0.504 6.047 0 7.559 0.324 1.514 1.764 1.369 2.664 1.514 0.936 0.072 2.412-0.037 2.916-1.152 0.324-1.369-0.936-3.924-0.576-6.156 0.289-2.232 1.188-4.607 2.557-7.129-0.613-0.359-1.045-0.791-1.152-1.15-0.18-0.434-0.107-0.9 0.217-1.404v-14.646l-6.266-0.612-0.84 0.36z"
         id="path172" />
      <path
         stroke="#000"
         stroke-width=".036"
         stroke-miterlimit="10"
         d="m457.9 88.218l-0.107 12.349c-0.719 0.395-0.9 0.863-0.936 1.26 0.072 0.396 0.287 0.756 1.043 1.08 0.217 0.9-0.07 1.512-0.467 1.98-0.576 0.432-1.584-0.072-2.449 0.574-1.008 0.469-2.303 1.441-2.771 2.773-0.576 1.26-0.863 3.203 0.109 5.148 1.008 1.906 3.742 4.932 5.832 6.154 1.979 1.117 3.779 1.045 5.795 0.469 1.908-0.828 4.428-2.664 5.615-4.535 1.152-1.873 1.693-4.789 1.045-6.518-0.756-1.799-4.752-3.203-5.58-4.066-0.973-0.938-0.936-1.369 0.107-1.297 0.324-0.217 0.396-0.576 0.361-0.936-0.072-0.432-0.396-0.936-0.828-1.512l0.107-12.097c-2.26-0.229-4.57-0.517-6.87-0.805z"
         id="path174" />
    </g>
  </g>
  <metadata
     id="metadata179">
    <rdf:RDF>
      <cc:Work>
        <dc:format>image/svg+xml</dc:format>
        <dc:type
           rdf:resource="http://purl.org/dc/dcmitype/StillImage" />
        <cc:license
           rdf:resource="http://creativecommons.org/licenses/publicdomain/" />
        <dc:publisher>
          <cc:Agent
             rdf:about="http://openclipart.org/">
            <dc:title>Openclipart</dc:title>
          </cc:Agent>
        </dc:publisher>
        <dc:title>Violin</dc:title>
        <dc:date>2006-10-17T10:46:34</dc:date>
        <dc:description>clip art, clipart, colouring book, instrument, music, violin, </dc:description>
        <dc:source>http://openclipart.org/detail/8242/violin-by-gerald_g-8242</dc:source>
        <dc:creator>
          <cc:Agent>
            <dc:title>Gerald_G</dc:title>
          </cc:Agent>
        </dc:creator>
        <dc:subject>
          <rdf:Bag>
            <rdf:li>clip art</rdf:li>
            <rdf:li>clipart</rdf:li>
            <rdf:li>colouring book</rdf:li>
            <rdf:li>instrument</rdf:li>
            <rdf:li>music</rdf:li>
            <rdf:li>violin</rdf:li>
          </rdf:Bag>
        </dc:subject>
      </cc:Work>
      <cc:License
         rdf:about="http://creativecommons.org/licenses/publicdomain/">
        <cc:permits
           rdf:resource="http://creativecommons.org/ns#Reproduction" />
        <cc:permits
           rdf:resource="http://creativecommons.org/ns#Distribution" />
        <cc:permits
           rdf:resource="http://creativecommons.org/ns#DerivativeWorks" />
      </cc:License>
    </rdf:RDF>
  </metadata>
</svg>
