<?xml version="1.0" encoding="UTF-8" standalone="no"?>
<!-- Created with Inkscape (http://www.inkscape.org/) -->

<svg
   width="1920"
   height="530"
   viewBox="0 0 1920 530"
   version="1.1"
   id="SVGRoot"
   sodipodi:docname="new_header.svg"
   inkscape:version="1.2.1 (9c6d41e410, 2022-07-14)"
   xml:space="preserve"
   xmlns:inkscape="http://www.inkscape.org/namespaces/inkscape"
   xmlns:sodipodi="http://sodipodi.sourceforge.net/DTD/sodipodi-0.dtd"
   xmlns="http://www.w3.org/2000/svg"
   xmlns:svg="http://www.w3.org/2000/svg"><sodipodi:namedview
     id="namedview3360"
     pagecolor="#ffffff"
     bordercolor="#000000"
     borderopacity="0.25"
     inkscape:showpageshadow="2"
     inkscape:pageopacity="0.0"
     inkscape:pagecheckerboard="0"
     inkscape:deskcolor="#d1d1d1"
     inkscape:document-units="px"
     showgrid="false"
     inkscape:zoom="0.914906"
     inkscape:cx="949.27785"
     inkscape:cy="444.85444"
     inkscape:window-width="2560"
     inkscape:window-height="1369"
     inkscape:window-x="-8"
     inkscape:window-y="-8"
     inkscape:window-maximized="1"
     inkscape:current-layer="layer3" /><defs
     id="defs3355"><rect
       x="110.39385"
       y="50.278389"
       width="717.01355"
       height="259.04301"
       id="rect619" /></defs><g
     inkscape:label="Layer 1"
     inkscape:groupmode="layer"
     id="layer1"><rect
       style="fill:#12664f;fill-opacity:1;stroke:#000000;stroke-width:0.188976"
       id="rect3487"
       width="1966.3223"
       height="542.1322"
       x="-5.4650421"
       y="-3.2790253" /></g><g
     inkscape:groupmode="layer"
     id="layer2"
     inkscape:label="staff"><path
       style="fill:#f0f3bd;fill-opacity:1;stroke:#000000;stroke-width:0.188976"
       id="path57367-0-4-3"
       d="m -66.03537,381.12008 c 70.2894001,-21.64366 280.17729,-79.89549 424.39152,-86.18004 319.65168,-13.92974 666.61755,107.39531 953.71715,108.46535 228.3347,-2.89224 553.4919,-48.36507 760.3541,-126.35202 9.3226,-3.51464 3.7453,-8.57344 -3.4279,-5.62756 -246.1572,101.09181 -670.8315,131.75702 -757.4919,128.18578 -283.6812,-2.41135 -633.59507,-122.57211 -952.97877,-108.27768 -144.6807,6.47536 -360.6006999,63.70021 -425.5912,87.41885 -1.4313,2.3264 -0.8257,1.89065 1.027,2.36732 z"
       sodipodi:nodetypes="cacsscacc" /><path
       style="fill:#f0f3bd;fill-opacity:1;stroke:#000000;stroke-width:0.188976"
       id="path57367-0-4-3-4"
       d="m -72.2184,402.76054 c 70.2894,-21.64366 280.1773,-79.89549 424.3916,-86.18004 319.6516,-13.92974 666.6175,107.39531 953.7171,108.46535 228.3347,-2.89224 553.4919,-48.36507 760.3541,-126.35202 9.3226,-3.51464 3.7453,-8.57344 -3.4279,-5.62756 C 1816.6593,394.15808 1391.985,424.82329 1305.3246,421.25205 1021.6434,418.8407 671.7295,298.67994 352.3458,312.97437 c -144.6807,6.47536 -360.6007,63.70021 -425.5912,87.41885 -1.4313,2.3264 -0.8257,1.89065 1.027,2.36732 z"
       sodipodi:nodetypes="cacsscacc" /><path
       style="fill:#f0f3bd;fill-opacity:1;stroke:#000000;stroke-width:0.188976"
       id="path57367-0-4-3-3"
       d="M -72.218387,421.30951 C -1.928989,399.66585 207.9589,341.41402 352.17313,335.12947 c 319.65168,-13.92974 666.61757,107.39531 953.71707,108.46535 228.3347,-2.89224 553.4919,-48.36507 760.3541,-126.35202 9.3226,-3.51464 3.7453,-8.57344 -3.4279,-5.62756 -246.1572,101.09181 -670.8315,131.75702 -757.4919,128.18578 -283.6811,-2.41135 -633.59499,-122.57211 -952.97869,-108.27768 -144.6807,6.47536 -360.600697,63.70021 -425.591197,87.41885 -1.4313,2.3264 -0.8257,1.89065 1.027,2.36732 z"
       sodipodi:nodetypes="cacsscacc" /><path
       style="fill:#f0f3bd;fill-opacity:1;stroke:#000000;stroke-width:0.188976"
       id="path57367-0-4-3-0"
       d="M -67.581147,439.85848 C 2.7082534,418.21482 212.59614,359.96299 356.81037,353.67844 676.46205,339.7487 1023.4279,461.07375 1310.5276,462.14379 c 228.3347,-2.89224 553.4919,-48.36507 760.3541,-126.35202 9.3226,-3.51464 3.7453,-8.57344 -3.4279,-5.62756 -246.1572,101.09181 -670.8315,131.75702 -757.4919,128.18578 -283.6813,-2.41135 -633.59515,-122.57211 -952.97885,-108.27768 -144.6807,6.47536 -360.6006966,63.70021 -425.591197,87.41885 -1.4313,2.3264 -0.8257,1.89065 1.027,2.36732 z"
       sodipodi:nodetypes="cacsscacc" /><path
       style="fill:#f0f3bd;fill-opacity:1;stroke:#000000;stroke-width:0.188976"
       id="path57367-0-4-3-7"
       d="M -67.581147,459.9532 C 2.7082525,438.30954 212.59614,380.05771 356.81037,373.77316 c 319.65168,-13.92974 666.61753,107.39531 953.71713,108.46535 228.3347,-2.89224 553.4919,-48.36507 760.3541,-126.35202 9.3226,-3.51464 3.7453,-8.57344 -3.4279,-5.62756 -246.1572,101.09181 -670.8315,131.75702 -757.4919,128.18578 -283.6812,-2.41135 -633.59505,-122.57211 -952.97875,-108.27768 -144.6807,6.47536 -360.6006975,63.70021 -425.591197,87.41885 -1.4313,2.3264 -0.8257,1.89065 1.027,2.36732 z"
       sodipodi:nodetypes="cacsscacc" /></g><g
     inkscape:groupmode="layer"
     id="layer3"
     inkscape:label="instruments"><g
       style="overflow:visible"
       id="g61704"
       transform="matrix(0.32121586,-0.52655357,0.52655357,0.32121586,1345.854,477.66756)"><g
         clip-rule="evenodd"
         fill-rule="evenodd"
         id="g176"><path
           stroke="#000000"
           stroke-width="0.036"
           stroke-miterlimit="10"
           d="M 147.36,8.91 141.492,5.742 C 139.44,8.118 136.74,9.45 133.248,9.882 129.792,10.242 128.1,9.558 120.684,8.118 113.052,6.462 99.048,2.322 88.248,1.134 77.304,-0.09 66.324,-0.774 56.279,1.602 46.271,3.906 36.587,8.046 28.775,15.426 20.784,22.878 13.908,36.558 9.408,45.774 4.908,54.738 3.072,62.37 2.1,69.642 1.056,76.95 1.523,83.286 3.359,89.19 c -2.232,1.728 -3.348,3.816 -3.348,6.66 -0.072,2.771 1.044,6.012 3.204,9.865 -0.972,6.695 0.252,14.578 3.816,24.336 3.6,9.756 9.684,24.119 17.136,33.371 7.272,9.035 16.344,16.633 26.388,20.988 9.972,4.211 22.572,5.436 33.228,4.932 10.584,-0.611 21.708,-5.291 30.06,-7.813 8.208,-2.52 13.752,-6.191 19.548,-6.984 5.76,-0.863 10.692,-0.18 14.94,2.053 l 5.256,-3.313 c -1.944,-1.908 -2.952,-4.139 -3.024,-6.84 -0.216,-2.844 -0.072,-6.119 2.52,-9.395 2.592,-3.35 6.696,-7.236 12.888,-10.01 6.156,-2.844 17.064,-5.146 23.688,-6.336 6.48,-1.223 11.088,-1.115 14.94,-0.504 3.672,0.434 5.76,0.865 7.632,3.816 1.836,2.953 3.096,7.668 3.636,14.148 l 6.552,3.348 c 2.232,-2.053 4.86,-3.492 7.884,-4.463 2.88,-1.045 4.932,-1.656 10.188,-1.262 5.22,0.504 13.463,3.168 21.276,3.816 7.775,0.396 17.496,0.721 24.984,-0.971 7.416,-1.908 13.32,-4.572 19.223,-9.504 5.725,-5.041 11.449,-11.484 15.084,-19.729 3.529,-8.172 5.725,-17.785 6.445,-28.98 l 115.74,-8.424 c 3.959,-0.612 8.1,-1.188 12.563,-1.584 4.43,-0.504 9.145,-0.828 14.148,-1.116 0.217,0.9 1.008,1.476 2.52,1.584 1.441,0.108 3.457,-0.252 6.193,-0.936 -0.576,2.556 -0.145,4.176 1.295,5.255 1.441,0.938 5.438,1.477 7.129,0.793 1.584,-0.756 2.34,-2.412 2.412,-5.112 2.412,0 4.104,-0.468 5.076,-1.26 0.936,-0.936 1.043,-1.98 0.467,-3.672 2.377,1.188 4.068,0.972 5.076,-0.792 1.008,-1.8 1.801,-7.812 0.973,-9.684 -0.936,-1.944 -3.061,-2.484 -6.516,-1.764 0.035,-1.944 -0.396,-3.132 -1.441,-3.96 -1.08,-0.828 -2.664,-1.044 -4.752,-0.792 0.252,-2.484 -0.18,-4.104 -1.295,-5.256 -1.225,-1.188 -3.852,-1.656 -5.4,-1.404 -1.619,0.216 -3.313,1.62 -3.959,2.844 -0.686,1.08 -0.793,2.592 -0.182,4.14 -1.979,-0.576 -3.563,-0.684 -4.895,-0.18 -1.369,0.396 -2.484,1.404 -3.205,2.88 0.469,-0.504 -2.34,-0.828 -8.424,-0.972 -6.191,-0.18 -15.371,-0.18 -28.115,0 l -107.17,0.54 c 0.432,-4.788 -0.434,-10.224 -2.881,-16.704 -2.447,-6.588 -6.336,-15.66 -11.664,-21.78 -5.473,-6.12 -13.104,-11.34 -20.375,-14.292 -7.201,-3.024 -14.725,-3.816 -22.861,-3.492 -8.424,0.252 -19.764,3.744 -26.387,5.076 -6.444,1.224 -8.64,2.484 -12.42,2.232 -3.96,-0.468 -7.668,-1.908 -11.124,-4.608 l -6.192,3.96 c 1.836,3.636 2.232,6.768 1.044,9.684 -1.26,2.808 -3.276,5.724 -8.136,7.344 -4.968,1.548 -13.572,2.232 -20.808,1.908 -7.344,-0.468 -16.308,-1.908 -22.572,-4.608 -6.372,-2.88 -12.42,-7.56 -14.796,-12.096 -2.37,-4.636 -2.15,-9.676 0.76,-15.292 z"
           id="path134" /><path
           stroke="#000000"
           stroke-width="0.036"
           stroke-miterlimit="10"
           d="m 322.07,71.55 c 0.252,-3.24 -0.324,-7.164 -1.584,-11.916 -1.369,-4.896 -2.27,-10.692 -6.193,-16.56 -4.031,-6.012 -10.836,-14.148 -17.496,-18.432 -6.803,-4.176 -15.623,-6.084 -22.572,-6.84 -7.092,-0.828 -12.996,0.648 -19.223,1.908 -6.409,1.152 -12.924,4.14 -18.145,4.932 -5.22,0.576 -9.504,0 -12.708,-0.612 -3.276,-0.648 -5.4,-1.512 -6.516,-2.88 l -2.376,1.116 c 1.152,2.916 1.476,5.436 1.116,7.956 -0.396,2.376 -0.972,4.644 -3.672,6.66 -2.952,2.052 -7.128,4.608 -13.5,5.58 -6.552,0.828 -16.812,0.9 -24.804,-0.324 -8.028,-1.332 -17.172,-4.104 -22.572,-7.488 -5.364,-3.492 -8.316,-9.036 -9.54,-13.032 -1.368,-4.032 -0.684,-7.632 1.764,-10.944 l -1.908,-1.44 c -0.144,2.268 -2.772,3.384 -8.28,3.348 -5.58,-0.144 -16.56,-2.34 -24.48,-3.816 C 101.533,7.218 94.477,4.41 86.665,3.654 78.606,2.79 70.435,2.07 61.866,3.834 53.226,5.526 44.478,8.91 35.334,13.986 c 6.084,4.716 11.016,10.872 14.94,18.468 3.816,7.596 8.604,16.74 8.244,26.856 -0.396,10.08 -3.996,20.772 -10.656,32.904 5.688,-3.384 12.204,-6.336 20.376,-9.396 7.992,-3.132 21.276,-7.416 27.648,-8.568 6.156,-1.188 8.244,-0.18 10.152,2.052 1.8,2.196 1.116,6.372 1.44,10.98 0.36,4.5 0.576,11.269 0.648,15.876 -0.072,4.393 1.044,9.107 -0.972,10.836 -2.16,1.656 -5.292,0.611 -11.736,-0.504 -6.66,-1.225 -17.532,-4.824 -27.18,-6.336 -9.72,-1.621 -21.6,-2.844 -30.204,-2.701 -8.604,0.182 -15.552,3.061 -20.844,3.637 -5.292,0.359 -9,0.18 -10.98,-0.936 -1.476,2.699 -1.008,7.523 1.116,14.615 2.124,7.057 6.696,19.297 11.772,27.828 5.004,8.461 10.404,16.74 18.288,22.896 7.884,6.047 19.224,11.195 28.764,13.355 9.396,1.943 18.612,0.469 27.648,-1.115 9,-1.693 19.728,-6.301 25.92,-8.424 6.012,-2.197 6.444,-3.637 10.188,-4.465 3.672,-0.863 8.748,-0.828 11.772,-0.469 2.844,0.254 4.644,1.045 5.4,2.232 l 2.52,-1.619 c -2.052,-1.26 -3.06,-3.168 -3.024,-5.869 -0.108,-2.879 -0.072,-6.516 3.024,-10.332 2.952,-3.887 7.524,-8.783 15.264,-11.916 7.848,-3.168 23.148,-5.902 31.176,-6.695 7.884,-0.9 12.24,-1.477 16.128,1.764 3.78,3.277 5.904,8.928 6.516,17.496 l 2.52,2.053 c 2.412,-3.061 5.724,-4.824 10.332,-5.58 4.572,-0.721 10.332,0.504 16.848,1.295 6.373,0.721 14.58,2.594 21.312,2.846 6.553,0.143 12.096,0.287 18.432,-1.908 6.373,-2.377 13.861,-6.012 19.549,-11.736 5.58,-5.939 10.691,-15.66 13.535,-22.752 2.771,-7.02 3.492,-13.285 2.701,-19.08 l -113.51,10.188 c 1.008,-2.809 1.512,-6.264 1.908,-10.512 0.288,-4.393 0.468,-9.684 0,-14.76 -0.576,-5.004 -1.584,-10.044 -3.168,-15.12 37.61,0.036 75.27,0.108 112.92,0.18 z"
           fill="#fff"
           id="path136"
           style="fill:#936f4d;fill-opacity:1" /><path
           stroke="#000000"
           stroke-width="0.036"
           stroke-miterlimit="10"
           d="m 150.25,75.258 c 1.44,-0.612 2.988,-0.936 4.5,-0.828 1.476,-0.036 3.636,-0.576 4.68,1.296 0.972,1.908 1.008,5.868 1.368,9.648 0.36,3.6 0.72,7.524 0.648,12.204 -0.216,4.715 -0.324,13.355 -1.836,15.623 -1.62,2.018 -4.104,0.938 -7.596,-3.24 l 0.18,-4.104 c 0.972,0.324 1.656,0.109 2.196,-0.936 0.36,-1.152 0.576,-1.943 0.648,-5.148 0.144,-3.313 0.288,-11.339 0,-13.967 -0.468,-2.628 -1.332,-2.988 -2.592,-1.368 -0.252,-1.98 -0.504,-3.672 -0.9,-5.22 -0.4,-1.619 -0.84,-2.807 -1.3,-3.959 z"
           id="path138" /><path
           stroke="#000000"
           stroke-width="0.036"
           stroke-miterlimit="10"
           d="m 126.63,139.73 3.204,2.484 c 2.232,-1.477 3.96,-1.836 5.58,-1.08 1.512,0.646 3.744,3.744 3.636,5.398 -0.252,1.621 -2.52,4.213 -4.572,4.465 -2.088,0.145 -5.904,-1.367 -7.704,-3.564 -1.944,-2.34 -4.644,-6.695 -3.384,-10.008 1.26,-3.564 5.652,-7.775 11.088,-10.115 5.436,-2.34 14.724,-2.773 21.204,-3.385 6.408,-0.576 12.492,-0.035 16.884,-0.324 4.212,-0.432 6.804,-1.152 8.604,-2.16 1.764,-1.008 2.556,-2.375 2.232,-3.959 l -2.232,-1.656 c -2.196,0.359 -3.708,0.18 -4.536,-0.684 -0.936,-0.973 -1.656,-3.529 -0.756,-4.465 0.936,-1.043 3.744,-1.98 5.796,-1.152 1.908,0.793 4.932,3.457 5.472,6.193 0.432,2.734 -0.324,7.271 -2.808,9.863 -2.628,2.375 -7.344,4.031 -12.348,4.969 -5.112,0.756 -11.664,0.143 -17.712,0.504 -6.192,0.287 -13.752,0.646 -18.396,2.051 -4.67,1.43 -7.62,3.59 -9.24,6.61 z"
           id="path140" /><path
           stroke="#000000"
           stroke-width="0.036"
           stroke-miterlimit="10"
           d="m 124.79,44.262 3.204,-2.484 c 2.232,1.404 3.96,1.764 5.58,1.08 1.512,-0.756 3.744,-3.852 3.636,-5.4 -0.252,-1.728 -2.52,-4.284 -4.572,-4.464 -2.088,-0.252 -5.904,1.26 -7.704,3.564 -1.944,2.232 -4.644,6.588 -3.384,10.008 1.26,3.456 5.652,7.704 11.088,10.116 5.436,2.232 14.724,2.664 21.204,3.384 6.408,0.468 12.492,-0.072 16.884,0.324 4.212,0.36 6.804,1.08 8.604,2.16 1.764,0.972 2.556,2.304 2.232,3.996 l -2.232,1.656 c -2.196,-0.468 -3.708,-0.252 -4.536,0.648 -0.936,0.864 -1.656,3.456 -0.756,4.464 0.936,0.972 3.744,1.872 5.796,1.152 1.908,-0.9 4.932,-3.564 5.472,-6.192 0.432,-2.808 -0.324,-7.344 -2.808,-9.864 -2.628,-2.484 -7.344,-4.14 -12.348,-4.968 -5.112,-0.828 -11.664,-0.252 -17.712,-0.504 -6.192,-0.396 -13.752,-0.756 -18.396,-2.052 -4.67,-1.476 -7.62,-3.636 -9.24,-6.624 z"
           id="path142" /><path
           stroke="#000000"
           stroke-width="0.036"
           stroke-miterlimit="10"
           d="m 432.41,71.91 -0.109,-12.348 c -0.719,-0.432 -0.898,-0.9 -0.936,-1.26 0.072,-0.36 0.289,-0.756 1.045,-1.044 0.215,-0.936 -0.072,-1.548 -0.469,-1.98 -0.576,-0.504 -1.584,-0.108 -2.447,-0.612 -1.008,-0.576 -2.305,-1.548 -2.773,-2.772 -0.576,-1.368 -0.863,-3.276 0.109,-5.148 1.008,-2.016 3.744,-5.04 5.832,-6.156 1.979,-1.188 3.779,-1.152 5.795,-0.468 1.836,0.72 4.393,2.556 5.58,4.536 1.08,1.764 1.764,4.716 1.08,6.516 -0.863,1.764 -4.68,3.132 -5.615,4.104 -0.9,0.828 -0.9,1.296 0.143,1.26 0.252,0.18 0.361,0.54 0.324,0.936 -0.107,0.36 -0.324,0.864 -0.791,1.512 l 0.107,12.096 c -2.24,0.252 -4.54,0.54 -6.85,0.828 z"
           id="path168" /><path
           stroke="#000000"
           stroke-width="0.036"
           stroke-miterlimit="10"
           d="m 451.49,71.334 v -14.22 c 0.611,-0.648 0.863,-1.224 0.611,-1.728 -0.289,-0.576 -1.08,-1.08 -2.232,-1.512 1.045,-1.476 1.691,-3.168 2.088,-5.364 0.289,-2.16 -0.504,-6.156 0,-7.56 0.432,-1.62 1.656,-1.476 2.701,-1.512 0.936,-0.18 2.412,-0.072 2.916,1.152 0.215,1.26 -0.865,3.816 -0.613,6.156 0.289,2.196 1.152,4.572 2.592,7.128 -0.646,0.324 -1.043,0.756 -1.188,1.152 -0.145,0.396 -0.107,0.864 0.252,1.404 v 14.652 l -6.299,0.576 -0.83,-0.324 z"
           id="path170" /><path
           stroke="#000000"
           stroke-width="0.036"
           stroke-miterlimit="10"
           d="m 442.31,90.162 v 14.221 c 0.648,0.611 0.793,1.188 0.576,1.727 -0.324,0.541 -1.008,1.045 -2.195,1.512 1.045,1.441 1.691,3.133 2.088,5.365 0.287,2.051 -0.504,6.047 0,7.559 0.324,1.514 1.764,1.369 2.664,1.514 0.936,0.072 2.412,-0.037 2.916,-1.152 0.324,-1.369 -0.936,-3.924 -0.576,-6.156 0.289,-2.232 1.188,-4.607 2.557,-7.129 -0.613,-0.359 -1.045,-0.791 -1.152,-1.15 -0.18,-0.434 -0.107,-0.9 0.217,-1.404 V 90.423 l -6.266,-0.612 -0.84,0.36 z"
           id="path172" /><path
           stroke="#000000"
           stroke-width="0.036"
           stroke-miterlimit="10"
           d="m 457.9,88.218 -0.107,12.349 c -0.719,0.395 -0.9,0.863 -0.936,1.26 0.072,0.396 0.287,0.756 1.043,1.08 0.217,0.9 -0.07,1.512 -0.467,1.98 -0.576,0.432 -1.584,-0.072 -2.449,0.574 -1.008,0.469 -2.303,1.441 -2.771,2.773 -0.576,1.26 -0.863,3.203 0.109,5.148 1.008,1.906 3.742,4.932 5.832,6.154 1.979,1.117 3.779,1.045 5.795,0.469 1.908,-0.828 4.428,-2.664 5.615,-4.535 1.152,-1.873 1.693,-4.789 1.045,-6.518 -0.756,-1.799 -4.752,-3.203 -5.58,-4.066 -0.973,-0.938 -0.936,-1.369 0.107,-1.297 0.324,-0.217 0.396,-0.576 0.361,-0.936 -0.072,-0.432 -0.396,-0.936 -0.828,-1.512 l 0.107,-12.097 c -2.26,-0.229 -4.57,-0.517 -6.87,-0.805 z"
           id="path174" /></g></g><g
       style="overflow:visible"
       id="g61756"
       transform="matrix(-0.42132781,-0.81427646,0.81427646,-0.42132781,1226.5151,476.91827)"><g
         clip-rule="evenodd"
         fill-rule="evenodd"
         id="g602"><path
           stroke="#000000"
           stroke-width="0.036"
           stroke-miterlimit="10"
           d="M 147.36,8.91 141.492,5.742 C 139.44,8.118 136.74,9.45 133.248,9.882 129.792,10.242 128.1,9.558 120.684,8.118 113.052,6.462 99.048,2.322 88.248,1.134 77.304,-0.09 66.324,-0.774 56.279,1.602 46.271,3.906 36.587,8.046 28.775,15.426 20.784,22.878 13.908,36.558 9.408,45.774 4.908,54.738 3.072,62.37 2.1,69.642 1.056,76.95 1.523,83.286 3.359,89.19 c -2.232,1.728 -3.348,3.816 -3.348,6.66 -0.072,2.771 1.044,6.012 3.204,9.865 -0.972,6.695 0.252,14.578 3.816,24.336 3.6,9.756 9.684,24.119 17.136,33.371 7.272,9.035 16.344,16.633 26.388,20.988 9.972,4.211 22.572,5.436 33.228,4.932 10.584,-0.611 21.708,-5.291 30.06,-7.813 8.208,-2.52 13.752,-6.191 19.548,-6.984 5.76,-0.863 10.692,-0.18 14.94,2.053 l 5.256,-3.313 c -1.944,-1.908 -2.952,-4.139 -3.024,-6.84 -0.216,-2.844 -0.072,-6.119 2.52,-9.395 2.592,-3.35 6.696,-7.236 12.888,-10.01 6.156,-2.844 17.064,-5.146 23.688,-6.336 6.48,-1.223 11.088,-1.115 14.94,-0.504 3.672,0.434 5.76,0.865 7.632,3.816 1.836,2.953 3.096,7.668 3.636,14.148 l 6.552,3.348 c 2.232,-2.053 4.86,-3.492 7.884,-4.463 2.88,-1.045 4.932,-1.656 10.188,-1.262 5.22,0.504 13.463,3.168 21.276,3.816 7.775,0.396 17.496,0.721 24.984,-0.971 7.416,-1.908 13.32,-4.572 19.223,-9.504 5.725,-5.041 11.449,-11.484 15.084,-19.729 3.529,-8.172 5.725,-17.785 6.445,-28.98 l 115.74,-8.424 c 3.959,-0.612 8.1,-1.188 12.563,-1.584 4.43,-0.504 9.145,-0.828 14.148,-1.116 0.217,0.9 1.008,1.476 2.52,1.584 1.441,0.108 3.457,-0.252 6.193,-0.936 -0.576,2.556 -0.145,4.176 1.295,5.255 1.441,0.938 5.438,1.477 7.129,0.793 1.584,-0.756 2.34,-2.412 2.412,-5.112 2.412,0 4.104,-0.468 5.076,-1.26 0.936,-0.936 1.043,-1.98 0.467,-3.672 2.377,1.188 4.068,0.972 5.076,-0.792 1.008,-1.8 1.801,-7.812 0.973,-9.684 -0.936,-1.944 -3.061,-2.484 -6.516,-1.764 0.035,-1.944 -0.396,-3.132 -1.441,-3.96 -1.08,-0.828 -2.664,-1.044 -4.752,-0.792 0.252,-2.484 -0.18,-4.104 -1.295,-5.256 -1.225,-1.188 -3.852,-1.656 -5.4,-1.404 -1.619,0.216 -3.313,1.62 -3.959,2.844 -0.686,1.08 -0.793,2.592 -0.182,4.14 -1.979,-0.576 -3.563,-0.684 -4.895,-0.18 -1.369,0.396 -2.484,1.404 -3.205,2.88 0.469,-0.504 -2.34,-0.828 -8.424,-0.972 -6.191,-0.18 -15.371,-0.18 -28.115,0 l -107.17,0.54 c 0.432,-4.788 -0.434,-10.224 -2.881,-16.704 -2.447,-6.588 -6.336,-15.66 -11.664,-21.78 -5.473,-6.12 -13.104,-11.34 -20.375,-14.292 -7.201,-3.024 -14.725,-3.816 -22.861,-3.492 -8.424,0.252 -19.764,3.744 -26.387,5.076 -6.444,1.224 -8.64,2.484 -12.42,2.232 -3.96,-0.468 -7.668,-1.908 -11.124,-4.608 l -6.192,3.96 c 1.836,3.636 2.232,6.768 1.044,9.684 -1.26,2.808 -3.276,5.724 -8.136,7.344 -4.968,1.548 -13.572,2.232 -20.808,1.908 -7.344,-0.468 -16.308,-1.908 -22.572,-4.608 -6.372,-2.88 -12.42,-7.56 -14.796,-12.096 -2.37,-4.636 -2.15,-9.676 0.76,-15.292 z"
           id="path560"
           style="fill:#000000;fill-opacity:1" /><path
           stroke="#000000"
           stroke-width="0.036"
           stroke-miterlimit="10"
           d="m 322.07,71.55 c 0.252,-3.24 -0.324,-7.164 -1.584,-11.916 -1.369,-4.896 -2.27,-10.692 -6.193,-16.56 -4.031,-6.012 -10.836,-14.148 -17.496,-18.432 -6.803,-4.176 -15.623,-6.084 -22.572,-6.84 -7.092,-0.828 -12.996,0.648 -19.223,1.908 -6.409,1.152 -12.924,4.14 -18.145,4.932 -5.22,0.576 -9.504,0 -12.708,-0.612 -3.276,-0.648 -5.4,-1.512 -6.516,-2.88 l -2.376,1.116 c 1.152,2.916 1.476,5.436 1.116,7.956 -0.396,2.376 -0.972,4.644 -3.672,6.66 -2.952,2.052 -7.128,4.608 -13.5,5.58 -6.552,0.828 -16.812,0.9 -24.804,-0.324 -8.028,-1.332 -17.172,-4.104 -22.572,-7.488 -5.364,-3.492 -8.316,-9.036 -9.54,-13.032 -1.368,-4.032 -0.684,-7.632 1.764,-10.944 l -1.908,-1.44 c -0.144,2.268 -2.772,3.384 -8.28,3.348 -5.58,-0.144 -16.56,-2.34 -24.48,-3.816 C 101.533,7.218 94.477,4.41 86.665,3.654 78.606,2.79 70.435,2.07 61.866,3.834 53.226,5.526 44.478,8.91 35.334,13.986 17.180579,30.302817 14.447754,45.573744 7.1852516,59.591625 3.5435836,70.709302 5.8456943,77.57457 7.1429539,88.104885 23.733864,88.241327 21.169652,91.061345 43.511694,90.142426 51.685583,88.622843 60.066,85.878 68.238,82.818 76.23,79.686 89.514,75.402 95.886,74.25 c 6.156,-1.188 8.244,-0.18 10.152,2.052 1.8,2.196 1.116,6.372 1.44,10.98 0.36,4.5 0.576,11.269 0.648,15.876 -0.072,4.393 1.044,9.107 -0.972,10.836 -2.16,1.656 -5.292,0.611 -11.736,-0.504 -6.66,-1.225 -17.532,-4.824 -27.18,-6.336 -9.72,-1.621 -21.6,-2.844 -30.204,-2.701 -8.604,0.182 -15.552,3.061 -20.844,3.637 -5.292,0.359 -9,0.18 -10.98,-0.936 -1.476,2.699 -1.008,7.523 1.116,14.615 2.124,7.057 6.696,19.297 11.772,27.828 5.004,8.461 10.404,16.74 18.288,22.896 7.884,6.047 19.224,11.195 28.764,13.355 9.396,1.943 18.612,0.469 27.648,-1.115 9,-1.693 19.728,-6.301 25.92,-8.424 6.012,-2.197 6.444,-3.637 10.188,-4.465 3.672,-0.863 8.748,-0.828 11.772,-0.469 2.844,0.254 4.644,1.045 5.4,2.232 l 2.52,-1.619 c -2.052,-1.26 -3.06,-3.168 -3.024,-5.869 -0.108,-2.879 -0.072,-6.516 3.024,-10.332 2.952,-3.887 7.524,-8.783 15.264,-11.916 7.848,-3.168 23.148,-5.902 31.176,-6.695 7.884,-0.9 12.24,-1.477 16.128,1.764 3.78,3.277 5.904,8.928 6.516,17.496 l 2.52,2.053 c 2.412,-3.061 5.724,-4.824 10.332,-5.58 4.572,-0.721 10.332,0.504 16.848,1.295 6.373,0.721 14.58,2.594 21.312,2.846 6.553,0.143 12.096,0.287 18.432,-1.908 6.373,-2.377 13.861,-6.012 19.549,-11.736 5.58,-5.939 10.691,-15.66 13.535,-22.752 2.771,-7.02 3.492,-13.285 2.701,-19.08 l -113.51,10.188 c 1.008,-2.809 1.512,-6.264 1.908,-10.512 0.288,-4.393 0.468,-9.684 0,-14.76 -0.576,-5.004 -1.584,-10.044 -3.168,-15.12 37.61,0.036 75.27,0.108 112.92,0.18 z"
           fill="#ffffff"
           id="path562"
           sodipodi:nodetypes="cccccccccccccccccccccccccccccccccccccccccccccccccccccccccccccccccsc"
           style="fill:#936f4d;fill-opacity:1" /><path
           stroke="#000000"
           stroke-width="0.036"
           stroke-miterlimit="10"
           d="m 150.25,75.258 c 1.44,-0.612 2.988,-0.936 4.5,-0.828 1.476,-0.036 3.636,-0.576 4.68,1.296 0.972,1.908 1.008,5.868 1.368,9.648 0.36,3.6 0.72,7.524 0.648,12.204 -0.216,4.715 -0.324,13.355 -1.836,15.623 -1.62,2.018 -4.104,0.938 -7.596,-3.24 l 0.18,-4.104 c 0.972,0.324 1.656,0.109 2.196,-0.936 0.36,-1.152 0.576,-1.943 0.648,-5.148 0.144,-3.313 0.288,-11.339 0,-13.967 -0.468,-2.628 -1.332,-2.988 -2.592,-1.368 -0.252,-1.98 -0.504,-3.672 -0.9,-5.22 -0.4,-1.619 -0.84,-2.807 -1.3,-3.959 z"
           id="path564" /><path
           stroke="#000000"
           stroke-width="0.036"
           stroke-miterlimit="10"
           d="m 126.63,139.73 3.204,2.484 c 2.232,-1.477 3.96,-1.836 5.58,-1.08 1.512,0.646 3.744,3.744 3.636,5.398 -0.252,1.621 -2.52,4.213 -4.572,4.465 -2.088,0.145 -5.904,-1.367 -7.704,-3.564 -1.944,-2.34 -4.644,-6.695 -3.384,-10.008 1.26,-3.564 5.652,-7.775 11.088,-10.115 5.436,-2.34 14.724,-2.773 21.204,-3.385 6.408,-0.576 12.492,-0.035 16.884,-0.324 4.212,-0.432 6.804,-1.152 8.604,-2.16 1.764,-1.008 2.556,-2.375 2.232,-3.959 l -2.232,-1.656 c -2.196,0.359 -3.708,0.18 -4.536,-0.684 -0.936,-0.973 -1.656,-3.529 -0.756,-4.465 0.936,-1.043 3.744,-1.98 5.796,-1.152 1.908,0.793 4.932,3.457 5.472,6.193 0.432,2.734 -0.324,7.271 -2.808,9.863 -2.628,2.375 -7.344,4.031 -12.348,4.969 -5.112,0.756 -11.664,0.143 -17.712,0.504 -6.192,0.287 -13.752,0.646 -18.396,2.051 -4.67,1.43 -7.62,3.59 -9.24,6.61 z"
           id="path566" /><path
           stroke="#000000"
           stroke-width="0.036"
           stroke-miterlimit="10"
           d="m 124.79,44.262 3.204,-2.484 c 2.232,1.404 3.96,1.764 5.58,1.08 1.512,-0.756 3.744,-3.852 3.636,-5.4 -0.252,-1.728 -2.52,-4.284 -4.572,-4.464 -2.088,-0.252 -5.904,1.26 -7.704,3.564 -1.944,2.232 -4.644,6.588 -3.384,10.008 1.26,3.456 5.652,7.704 11.088,10.116 5.436,2.232 14.724,2.664 21.204,3.384 6.408,0.468 12.492,-0.072 16.884,0.324 4.212,0.36 6.804,1.08 8.604,2.16 1.764,0.972 2.556,2.304 2.232,3.996 l -2.232,1.656 c -2.196,-0.468 -3.708,-0.252 -4.536,0.648 -0.936,0.864 -1.656,3.456 -0.756,4.464 0.936,0.972 3.744,1.872 5.796,1.152 1.908,-0.9 4.932,-3.564 5.472,-6.192 0.432,-2.808 -0.324,-7.344 -2.808,-9.864 -2.628,-2.484 -7.344,-4.14 -12.348,-4.968 -5.112,-0.828 -11.664,-0.252 -17.712,-0.504 -6.192,-0.396 -13.752,-0.756 -18.396,-2.052 -4.67,-1.476 -7.62,-3.636 -9.24,-6.624 z"
           id="path568" /><path
           stroke="#000000"
           stroke-width="0.036"
           stroke-miterlimit="10"
           d="m 432.41,71.91 -0.109,-12.348 c -0.719,-0.432 -0.898,-0.9 -0.936,-1.26 0.072,-0.36 0.289,-0.756 1.045,-1.044 0.215,-0.936 -0.072,-1.548 -0.469,-1.98 -0.576,-0.504 -1.584,-0.108 -2.447,-0.612 -1.008,-0.576 -2.305,-1.548 -2.773,-2.772 -0.576,-1.368 -0.863,-3.276 0.109,-5.148 1.008,-2.016 3.744,-5.04 5.832,-6.156 1.979,-1.188 3.779,-1.152 5.795,-0.468 1.836,0.72 4.393,2.556 5.58,4.536 1.08,1.764 1.764,4.716 1.08,6.516 -0.863,1.764 -4.68,3.132 -5.615,4.104 -0.9,0.828 -0.9,1.296 0.143,1.26 0.252,0.18 0.361,0.54 0.324,0.936 -0.107,0.36 -0.324,0.864 -0.791,1.512 l 0.107,12.096 c -2.24,0.252 -4.54,0.54 -6.85,0.828 z"
           id="path594" /><path
           stroke="#000000"
           stroke-width="0.036"
           stroke-miterlimit="10"
           d="m 451.49,71.334 v -14.22 c 0.611,-0.648 0.863,-1.224 0.611,-1.728 -0.289,-0.576 -1.08,-1.08 -2.232,-1.512 1.045,-1.476 1.691,-3.168 2.088,-5.364 0.289,-2.16 -0.504,-6.156 0,-7.56 0.432,-1.62 1.656,-1.476 2.701,-1.512 0.936,-0.18 2.412,-0.072 2.916,1.152 0.215,1.26 -0.865,3.816 -0.613,6.156 0.289,2.196 1.152,4.572 2.592,7.128 -0.646,0.324 -1.043,0.756 -1.188,1.152 -0.145,0.396 -0.107,0.864 0.252,1.404 v 14.652 l -6.299,0.576 -0.83,-0.324 z"
           id="path596" /><path
           stroke="#000000"
           stroke-width="0.036"
           stroke-miterlimit="10"
           d="m 442.31,90.162 v 14.221 c 0.648,0.611 0.793,1.188 0.576,1.727 -0.324,0.541 -1.008,1.045 -2.195,1.512 1.045,1.441 1.691,3.133 2.088,5.365 0.287,2.051 -0.504,6.047 0,7.559 0.324,1.514 1.764,1.369 2.664,1.514 0.936,0.072 2.412,-0.037 2.916,-1.152 0.324,-1.369 -0.936,-3.924 -0.576,-6.156 0.289,-2.232 1.188,-4.607 2.557,-7.129 -0.613,-0.359 -1.045,-0.791 -1.152,-1.15 -0.18,-0.434 -0.107,-0.9 0.217,-1.404 V 90.423 l -6.266,-0.612 -0.84,0.36 z"
           id="path598" /><path
           stroke="#000000"
           stroke-width="0.036"
           stroke-miterlimit="10"
           d="m 457.9,88.218 -0.107,12.349 c -0.719,0.395 -0.9,0.863 -0.936,1.26 0.072,0.396 0.287,0.756 1.043,1.08 0.217,0.9 -0.07,1.512 -0.467,1.98 -0.576,0.432 -1.584,-0.072 -2.449,0.574 -1.008,0.469 -2.303,1.441 -2.771,2.773 -0.576,1.26 -0.863,3.203 0.109,5.148 1.008,1.906 3.742,4.932 5.832,6.154 1.979,1.117 3.779,1.045 5.795,0.469 1.908,-0.828 4.428,-2.664 5.615,-4.535 1.152,-1.873 1.693,-4.789 1.045,-6.518 -0.756,-1.799 -4.752,-3.203 -5.58,-4.066 -0.973,-0.938 -0.936,-1.369 0.107,-1.297 0.324,-0.217 0.396,-0.576 0.361,-0.936 -0.072,-0.432 -0.396,-0.936 -0.828,-1.512 l 0.107,-12.097 c -2.26,-0.229 -4.57,-0.517 -6.87,-0.805 z"
           id="path600" /></g></g><text
       xml:space="preserve"
       id="text617"
       style="font-stretch:condensed;font-size:18.6667px;font-family:'Bernard MT Condensed';-inkscape-font-specification:'Bernard MT Condensed, Condensed';white-space:pre;shape-inside:url(#rect619);display:inline;fill:#f0f3bd;stroke:#000000;stroke-width:0.71811;stroke-opacity:0"
       transform="translate(20.767161,6.5580508)"><tspan
         x="110.39453"
         y="125.74502"
         id="tspan811"><tspan
           style="font-stretch:normal;font-size:85.3333px;font-family:Citylines;-inkscape-font-specification:'Citylines, Normal'"
           id="tspan809">The Ravenna Strings </tspan></tspan><tspan
         x="110.39453"
         y="232.41165"
         id="tspan815"><tspan
           style="font-stretch:normal;font-size:85.3333px;font-family:Citylines;-inkscape-font-specification:'Citylines, Normal'"
           id="tspan813">Orchestras</tspan></tspan></text></g></svg>
